<svg id="Group_787" data-name="Group 787" xmlns="http://www.w3.org/2000/svg" width="115.569" height="103.427" viewBox="0 0 115.569 103.427">
  <path id="Path_7751" data-name="Path 7751" d="M463.966,334.872c-.092-.738-.217-1.476-.363-2.219-.049-.239-.1-.478-.152-.711A31.825,31.825,0,0,0,445.24,309.8c-.89-.4-1.8-.754-2.73-1.069a31.855,31.855,0,0,0-32.846,7.836c-.689.7-1.351,1.438-1.97,2.2-.651.8-1.27,1.633-1.845,2.5a31.668,31.668,0,0,0-4.716,23.925c.109.537.233,1.074.369,1.606.245.982.543,1.943.879,2.887a31.882,31.882,0,0,0,29.921,21.1,32.235,32.235,0,0,0,4.933-.38c.466-.071.939-.158,1.405-.25.516-.1,1.031-.222,1.535-.348a26,26,0,0,1,1.08-3.131,30.271,30.271,0,0,1-3.152.814c-.016.005-.033.005-.049.011A29.159,29.159,0,1,1,460.125,347.8a29.413,29.413,0,0,1-1.189,3.088,26.36,26.36,0,0,1,3.235-.722c.358-.934.667-1.889.933-2.86A31.554,31.554,0,0,0,463.966,334.872Z" transform="translate(-392.056 -303.741)"/>
  <path id="Path_7752" data-name="Path 7752" d="M410.9,361.677a1.357,1.357,0,0,1-1.328-1.09c-1.076-5.358,3.412-10.794,10-12.117a13.734,13.734,0,0,1,8.888,1.069,9.042,9.042,0,0,1,5.018,6.249,1.357,1.357,0,0,1-2.66.534,6.391,6.391,0,0,0-3.587-4.364,11.01,11.01,0,0,0-7.124-.828c-5.125,1.029-8.659,5.032-7.878,8.923a1.357,1.357,0,0,1-1.063,1.6A1.392,1.392,0,0,1,410.9,361.677Z" transform="translate(-395.335 -318.875)"/>
  <path id="Path_7753" data-name="Path 7753" d="M456.4,352.545a1.358,1.358,0,0,1-1.329-1.09,9.043,9.043,0,0,1,2.218-7.7,14.323,14.323,0,0,1,16.674-3.347,9.041,9.041,0,0,1,5.018,6.249,1.357,1.357,0,0,1-2.66.534,6.391,6.391,0,0,0-3.587-4.364,11.62,11.62,0,0,0-13.377,2.685,6.39,6.39,0,0,0-1.625,5.411,1.357,1.357,0,0,1-1.063,1.6A1.391,1.391,0,0,1,456.4,352.545Z" transform="translate(-412.082 -315.513)"/>
  <path id="Path_7754" data-name="Path 7754" d="M516.646,393.5a28.537,28.537,0,0,0-.835-2.848,30.02,30.02,0,0,0-56.8.19,28.632,28.632,0,0,0-.82,2.9c-.207.884-.369,1.785-.494,2.7a30.017,30.017,0,0,0,47.932,27.924c.754-.575,1.471-1.177,2.16-1.807.673-.619,1.319-1.264,1.927-1.937a30.046,30.046,0,0,0,6.935-27.121Zm-2.138,10.647a27.312,27.312,0,0,1-54.129-7.342,27.477,27.477,0,0,1,.749-3.657,26,26,0,0,1,1.08-3.131,27.442,27.442,0,0,1,17.679-15.8,26.367,26.367,0,0,1,3.235-.722,27.309,27.309,0,0,1,31.386,30.648Z" transform="translate(-413.006 -327.076)"/>
  <path id="Path_7755" data-name="Path 7755" d="M486.5,414.136a1.4,1.4,0,0,1-.184-.012,1.357,1.357,0,0,1-1.162-1.527c.5-3.652-3.026-7.155-7.849-7.81a10.266,10.266,0,0,0-6.582,1.189,5.925,5.925,0,0,0-3.065,4.247,1.357,1.357,0,0,1-2.689-.365,8.576,8.576,0,0,1,4.374-6.218,12.992,12.992,0,0,1,8.326-1.542c6.306.856,10.87,5.729,10.173,10.863A1.358,1.358,0,0,1,486.5,414.136Z" transform="translate(-415.782 -338.678)"/>
  <path id="Path_7756" data-name="Path 7756" d="M529.716,420a1.3,1.3,0,0,1-.184-.013,1.357,1.357,0,0,1-1.162-1.527,5.923,5.923,0,0,0-1.824-4.911,10.84,10.84,0,0,0-12.607-1.71,5.925,5.925,0,0,0-3.066,4.247,1.357,1.357,0,0,1-2.689-.365,8.577,8.577,0,0,1,4.375-6.219,13.542,13.542,0,0,1,15.938,2.163,8.575,8.575,0,0,1,2.56,7.159A1.357,1.357,0,0,1,529.716,420Z" transform="translate(-431.692 -340.836)"/>
  <path id="Path_7757" data-name="Path 7757" d="M398.24,354.706c-.028,0-.057,0-.085,0-6.246-.389-10.774-4.469-11.011-9.924a9.79,9.79,0,0,1,3.358-7.754,9.7,9.7,0,0,1,2.682-14.938,13.9,13.9,0,0,1,11.639-.538,1.357,1.357,0,0,1-.973,2.533,11.154,11.154,0,0,0-9.339.372,7,7,0,0,0-3.593,4.917,7.251,7.251,0,0,0,2.518,6.774,1.356,1.356,0,0,1-.15,2.156,7.253,7.253,0,0,0-3.43,6.36c.174,4.019,3.657,7.035,8.468,7.334a1.357,1.357,0,0,1-.083,2.711Z" transform="translate(-387.134 -308.7)"/>
  <path id="Path_7758" data-name="Path 7758" d="M487.561,333.116a1.357,1.357,0,0,1-.713-2.511c4.1-2.533,5.751-6.834,4.009-10.46a7.252,7.252,0,0,0-6.025-3.992,1.357,1.357,0,0,1-1.149-1.831,7.25,7.25,0,0,0-.973-7.16,6.994,6.994,0,0,0-5.488-2.642,11.16,11.16,0,0,0-8.41,4.077,1.357,1.357,0,1,1-2.052-1.776,13.9,13.9,0,0,1,10.517-5.014,9.7,9.7,0,0,1,9.409,11.908,9.788,9.788,0,0,1,6.618,5.255c2.364,4.92.3,10.654-5.029,13.942A1.348,1.348,0,0,1,487.561,333.116Z" transform="translate(-416.324 -301.806)"/>
  <path id="Path_7759" data-name="Path 7759" d="M425.341,325.026a1.356,1.356,0,0,1-.714-2.51A34.172,34.172,0,0,1,445.3,317.5a1.357,1.357,0,1,1-.2,2.706,31.456,31.456,0,0,0-19.042,4.618A1.348,1.348,0,0,1,425.341,325.026Z" transform="translate(-400.7 -307.546)"/>
  <path id="Path_7760" data-name="Path 7760" d="M431.345,332.208a1.357,1.357,0,0,1-.714-2.51,24.751,24.751,0,0,1,14.977-3.635,1.357,1.357,0,1,1-.2,2.706,22.028,22.028,0,0,0-13.346,3.236A1.34,1.34,0,0,1,431.345,332.208Z" transform="translate(-402.91 -310.709)"/>
  <path id="Path_7761" data-name="Path 7761" d="M513.5,387.985a1.356,1.356,0,0,1-1.824.6,31.467,31.467,0,0,0-19.361-3.028,1.366,1.366,0,0,1-.95-.2,1.355,1.355,0,0,1,.516-2.48c.407-.065.809-.124,1.216-.173a34.13,34.13,0,0,1,19.8,3.462A1.356,1.356,0,0,1,513.5,387.985Z" transform="translate(-425.276 -331.485)"/>
  <path id="Path_7762" data-name="Path 7762" d="M509.609,396.07a1.349,1.349,0,0,1-.612-.147A22.05,22.05,0,0,0,495.43,393.8a1.356,1.356,0,0,1-.435-2.678,24.738,24.738,0,0,1,15.228,2.38,1.357,1.357,0,0,1-.614,2.567Z" transform="translate(-426.421 -334.567)"/>
  <path id="Path_7763" data-name="Path 7763" d="M543.808,436.964a11.588,11.588,0,0,1-7.72-3.061,1.356,1.356,0,1,1,1.8-2.033,8.927,8.927,0,0,0,5.925,2.382c5.981,0,10.847-6.54,10.847-14.579s-4.866-14.579-10.847-14.579a1.357,1.357,0,1,1,0-2.713c7.478,0,13.56,7.758,13.56,17.293S551.285,436.964,543.808,436.964Z" transform="translate(-441.799 -338.829)"/>
</svg>
