<svg xmlns="http://www.w3.org/2000/svg" width="115.071" height="99.152" viewBox="0 0 115.071 99.152">
  <g id="Group_790" data-name="Group 790" transform="translate(0 0)">
    <path id="Path_7731" data-name="Path 7731" d="M286.147,626.868" transform="translate(-235.032 -579.803)" stroke="#0058a7" stroke-linecap="round" stroke-linejoin="round" stroke-width="4.294"/>
    <g id="Group_776" data-name="Group 776">
      <path id="Path_7732" data-name="Path 7732" d="M259.839,575.1a27.474,27.474,0,1,0,.423,4.8A27.826,27.826,0,0,0,259.839,575.1ZM237.07,604.3a24.8,24.8,0,0,1-28.185-31.109,26.291,26.291,0,0,0,5.248.526,26.964,26.964,0,0,0,4.7-.413A26.658,26.658,0,0,0,238.6,557.928a18.291,18.291,0,0,0,17.028,12.389A24.8,24.8,0,0,1,237.07,604.3Z" transform="translate(-205.252 -552.383)"/>
      <path id="Path_7733" data-name="Path 7733" d="M219.186,600.583a1.357,1.357,0,0,1-1.335-1.121,8.272,8.272,0,0,1,1.681-6.556,9.755,9.755,0,0,1,6.058-3.6c5.1-.9,9.919,2.19,10.75,6.889a1.357,1.357,0,0,1-2.672.472c-.57-3.226-3.979-5.328-7.606-4.689a7.053,7.053,0,0,0-4.384,2.587,5.592,5.592,0,0,0-1.156,4.424,1.358,1.358,0,0,1-1.337,1.593Z" transform="translate(-209.845 -565.918)"/>
      <path id="Path_7734" data-name="Path 7734" d="M253.051,594.6a1.356,1.356,0,0,1-1.334-1.121,8.268,8.268,0,0,1,1.681-6.556,9.755,9.755,0,0,1,6.057-3.6c5.1-.906,9.92,2.19,10.749,6.889a1.356,1.356,0,0,1-2.672.471c-.57-3.225-3.98-5.327-7.606-4.689a7.05,7.05,0,0,0-4.383,2.586,5.592,5.592,0,0,0-1.156,4.424,1.357,1.357,0,0,1-1.1,1.572A1.381,1.381,0,0,1,253.051,594.6Z" transform="translate(-222.311 -563.715)"/>
    </g>
    <g id="Group_777" data-name="Group 777" transform="translate(56.709 10.502)">
      <path id="Path_7735" data-name="Path 7735" d="M341.808,589.58A23.5,23.5,0,0,0,295,592.51a23.857,23.857,0,0,0,.179,2.914,23.494,23.494,0,0,0,36.357,16.621,22.858,22.858,0,0,0,2.2-1.677A23.478,23.478,0,0,0,341.808,589.58Zm-20.729,23.545a20.743,20.743,0,0,1-18.959-33.351,20.906,20.906,0,0,1,3.727-3.733,20.562,20.562,0,0,1,10.066-4.162,20.818,20.818,0,0,1,20.186,9.578,19.751,19.751,0,0,1,1.286,2.387,20.564,20.564,0,0,1,1.731,6.072A20.813,20.813,0,0,1,321.078,613.124Z" transform="translate(-294.999 -569.003)"/>
      <path id="Path_7736" data-name="Path 7736" d="M329.02,590.1a28.494,28.494,0,0,1-21.731-10.061,1.357,1.357,0,1,1,2.07-1.755,25.8,25.8,0,0,0,32.358,5.771,1.356,1.356,0,0,1,1.335,2.361A28.53,28.53,0,0,1,329.02,590.1Z" transform="translate(-299.405 -572.245)"/>
      <path id="Path_7737" data-name="Path 7737" d="M370.149,619.757a28.593,28.593,0,0,1-19.862-8.021,1.357,1.357,0,0,1,1.889-1.948,25.861,25.861,0,0,0,16.216,7.2,28.635,28.635,0,0,1-5.473-28.234,1.36,1.36,0,0,1,.264-.451,9.234,9.234,0,0,0-11.52-14.117,9.526,9.526,0,0,0-1.272.88,1.356,1.356,0,1,1-1.722-2.1,12.133,12.133,0,0,1,1.637-1.132A11.947,11.947,0,0,1,365.4,589.886a25.941,25.941,0,0,0,6.987,27.32,1.4,1.4,0,0,1,.188.212l.113.16a1.357,1.357,0,0,1-1.036,2.139C371.15,619.744,370.649,619.757,370.149,619.757Z" transform="translate(-314.574 -569.463)"/>
      <path id="Path_7738" data-name="Path 7738" d="M319.8,605.552a1.4,1.4,0,0,1-.25-.023,1.358,1.358,0,0,1-1.086-1.583,4.223,4.223,0,0,0-.845-3.352,5.565,5.565,0,0,0-7.176-1.336,4.227,4.227,0,0,0-2,2.823,1.356,1.356,0,1,1-2.667-.5,6.908,6.908,0,0,1,3.236-4.635,8.275,8.275,0,0,1,10.764,2,6.908,6.908,0,0,1,1.352,5.489A1.357,1.357,0,0,1,319.8,605.552Z" transform="translate(-298.958 -578.857)"/>
      <path id="Path_7739" data-name="Path 7739" d="M346.956,610.608a1.386,1.386,0,0,1-.25-.023A1.357,1.357,0,0,1,345.62,609a4.229,4.229,0,0,0-.845-3.353,5.565,5.565,0,0,0-7.176-1.336,4.229,4.229,0,0,0-2,2.823,1.357,1.357,0,1,1-2.668-.5,6.906,6.906,0,0,1,3.237-4.635,8.273,8.273,0,0,1,10.763,2,6.911,6.911,0,0,1,1.352,5.489A1.357,1.357,0,0,1,346.956,610.608Z" transform="translate(-308.956 -580.719)"/>
    </g>
    <g id="Group_778" data-name="Group 778" transform="translate(8.842 58.003)">
      <path id="Path_7740" data-name="Path 7740" d="M259.863,660.116a20.341,20.341,0,0,0-3.652-7.792,1.258,1.258,0,0,0-.087-.114,20.574,20.574,0,0,0-36.563,8.959,1.232,1.232,0,0,0-.032.2,20.585,20.585,0,0,0,20.252,23.963,20.814,20.814,0,0,0,4.672-.537,20.606,20.606,0,0,0,15.948-20A20.741,20.741,0,0,0,259.863,660.116Zm-4.9,14.092a17.856,17.856,0,0,1-32.938-10.956,17.489,17.489,0,0,1,.461-2.767,17.842,17.842,0,0,1,30.8-7.456,16.818,16.818,0,0,1,1.644,2.208,17.84,17.84,0,0,1,.038,18.971Z" transform="translate(-219.246 -644.178)"/>
      <path id="Path_7741" data-name="Path 7741" d="M222.12,666.533a2.582,2.582,0,0,1-2.157-.907,1.356,1.356,0,0,1,2.011-1.81,5.146,5.146,0,0,0,1.808-.322c3.9-1.115,5.545-5.573,5.957-6.912a1.357,1.357,0,0,1,2.619.1c.6,2.631,1.778,3.916,2.383,3.956.586.044,1.765-1.384,3.125-3.031a26.185,26.185,0,0,0,2.626-3.823,1.357,1.357,0,0,1,2.2-.229,9.8,9.8,0,0,0,6.953,3.387,8.758,8.758,0,0,0,4.3-.908,1.357,1.357,0,0,1,2.65.57c-.507,3.067-6.724,3.047-6.969,3.051a11.892,11.892,0,0,1-7.682-3.033,28.806,28.806,0,0,1-1.987,2.713c-2.133,2.582-3.413,4.139-5.394,4.012a4.765,4.765,0,0,1-3.615-2.75,11.059,11.059,0,0,1-6.422,5.511A9.024,9.024,0,0,1,222.12,666.533Z" transform="translate(-219.406 -647.458)"/>
      <path id="Path_7742" data-name="Path 7742" d="M233.1,681.758a1.358,1.358,0,0,1-1.321-1.051,5.182,5.182,0,0,1,.833-4.158,6.007,6.007,0,0,1,3.61-2.411,5.622,5.622,0,0,1,6.875,3.954,1.357,1.357,0,0,1-2.643.612,2.917,2.917,0,0,0-3.621-1.923,3.311,3.311,0,0,0-1.991,1.314,2.5,2.5,0,0,0-.42,2,1.359,1.359,0,0,1-1.323,1.662Z" transform="translate(-223.813 -655.147)"/>
      <path id="Path_7743" data-name="Path 7743" d="M256.527,676.346a1.356,1.356,0,0,1-1.32-1.052,5.823,5.823,0,0,1,11.317-2.615,1.356,1.356,0,1,1-2.643.61,3.125,3.125,0,0,0-6.031,1.394,1.355,1.355,0,0,1-1.017,1.626A1.337,1.337,0,0,1,256.527,676.346Z" transform="translate(-232.437 -653.155)"/>
    </g>
    <g id="Group_781" data-name="Group 781" transform="translate(52.927 60.232)">
      <g id="Group_779" data-name="Group 779" transform="translate(0 1.67)">
        <path id="Path_7744" data-name="Path 7744" d="M322.305,677.945a18.022,18.022,0,1,1-27.588-22.726c.066-.065.13-.125.2-.179a18.044,18.044,0,0,1,19.15-3.267c.548.233,1.091.494,1.617.782a4.079,4.079,0,0,0-.369.911,3.97,3.97,0,0,0-.038,1.872,1.443,1.443,0,0,1-.478-.168,15.289,15.289,0,0,0-16.93.95,14.341,14.341,0,0,0-2.073,1.867,15.05,15.05,0,0,0-2.854,4.412,15.309,15.309,0,0,0,27.745,12.9,3.946,3.946,0,0,0,.787,1.834A3.809,3.809,0,0,0,322.305,677.945Z" transform="translate(-289.015 -650.349)"/>
        <path id="Path_7745" data-name="Path 7745" d="M324.858,670.915a7.394,7.394,0,0,1-1.677.2,6.3,6.3,0,0,1-3.413-.966,6.4,6.4,0,0,1-2.746-3.864,6.116,6.116,0,0,1-4.129.6,6.423,6.423,0,0,1-4.781-5.068,9.59,9.59,0,0,1-5.752.4,9.474,9.474,0,0,1-3.451-1.649,10.678,10.678,0,0,1-1.026-.9,1.351,1.351,0,0,1-.049-1.867c.016-.016.032-.038.049-.054.049-.044.1-.087.147-.125a1.363,1.363,0,0,1,1.774.13,7.209,7.209,0,0,0,1.178.949,6.766,6.766,0,0,0,2.029.885,7.4,7.4,0,0,0,5.611-1.053,1.356,1.356,0,0,1,2.095,1.3,3.937,3.937,0,0,0,2.757,4.4,3.746,3.746,0,0,0,3.7-1.552,1.354,1.354,0,0,1,2.414,1.053,4.05,4.05,0,0,0,1.639,4.13,3.555,3.555,0,0,0,1.758.542A5.677,5.677,0,0,0,324.858,670.915Z" transform="translate(-292.133 -652.925)"/>
        <path id="Path_7746" data-name="Path 7746" d="M326.747,685.479a1.358,1.358,0,0,1-1.249-1.886,2.352,2.352,0,0,0-1.467-2.957,2.691,2.691,0,0,0-1.938-.087,1.99,1.99,0,0,0-1.207,1.093,1.357,1.357,0,0,1-2.5-1.058,4.674,4.674,0,0,1,2.809-2.6,5.384,5.384,0,0,1,3.892.149A5.055,5.055,0,0,1,328,684.651,1.356,1.356,0,0,1,326.747,685.479Z" transform="translate(-299.788 -660.416)"/>
        <path id="Path_7747" data-name="Path 7747" d="M307.545,677.352a1.358,1.358,0,0,1-1.249-1.886,1.99,1.99,0,0,0-.057-1.627,2.679,2.679,0,0,0-1.41-1.329,2.35,2.35,0,0,0-3.145,1,1.357,1.357,0,0,1-2.5-1.059,5.056,5.056,0,0,1,6.7-2.445,5.393,5.393,0,0,1,2.816,2.69,4.67,4.67,0,0,1,.092,3.823A1.356,1.356,0,0,1,307.545,677.352Z" transform="translate(-292.719 -657.425)"/>
      </g>
      <g id="Group_780" data-name="Group 780" transform="translate(26.164)">
        <path id="Path_7748" data-name="Path 7748" d="M353.6,683.246a4.018,4.018,0,0,1-2.833,2.849l-6.642,1.8a4.109,4.109,0,0,1-1.058.141,4.038,4.038,0,0,1-2.344-.765,3.81,3.81,0,0,1-.835-.809,3.948,3.948,0,0,1-.787-1.834v-.005a4,4,0,0,1,.092-1.639l1.34-5.052c.093.059.185.12.282.174a5.67,5.67,0,0,0,2.279.738l-1.281,4.834a1.308,1.308,0,0,0,1.254,1.645,1.273,1.273,0,0,0,.348-.049l6.642-1.8a1.3,1.3,0,0,0,.581-2.182l-3.554-3.538a5.6,5.6,0,0,0,1.758-2.078l3.712,3.69A4.025,4.025,0,0,1,353.6,683.246Z" transform="translate(-333.601 -658.003)"/>
        <path id="Path_7749" data-name="Path 7749" d="M344.966,652.758l-1.368,5.166-.211-.13a5.8,5.8,0,0,0-2.366-.743l1.324-4.987a1.308,1.308,0,0,0-1.259-1.644,1.326,1.326,0,0,0-.347.049l-6.642,1.8a1.307,1.307,0,0,0-.581,2.187l3.658,3.636a5.775,5.775,0,0,0-1.666,1.839,1.623,1.623,0,0,0-.114.217l-3.787-3.772a4.047,4.047,0,0,1-1.091-2.008,3.987,3.987,0,0,1,.038-1.872,4.087,4.087,0,0,1,.369-.912,4.039,4.039,0,0,1,2.469-1.937l6.642-1.8a4.01,4.01,0,0,1,4.239,1.432A3.979,3.979,0,0,1,344.966,652.758Z" transform="translate(-330.421 -647.706)"/>
        <path id="Path_7750" data-name="Path 7750" d="M348.178,670.81a5.6,5.6,0,0,1-1.758,2.078,5.507,5.507,0,0,1-1.889.917,5.768,5.768,0,0,1-1.514.2,5.367,5.367,0,0,1-.586-.032,5.671,5.671,0,0,1-2.279-.738c-.1-.054-.19-.114-.282-.174a3.6,3.6,0,0,1-.374-.266,5.678,5.678,0,0,1-1.872-2.518c-.065-.179-.124-.353-.174-.537a5.7,5.7,0,0,1,.456-4.167,1.611,1.611,0,0,1,.114-.217,5.774,5.774,0,0,1,7.88-2.133l.211.13a5.753,5.753,0,0,1,2.067,7.456Z" transform="translate(-332.934 -653.137)"/>
      </g>
    </g>
  </g>
</svg>
