<svg id="Group_785" data-name="Group 785" xmlns="http://www.w3.org/2000/svg" width="90.28" height="107.254" viewBox="0 0 90.28 107.254">
  <path id="Path_7691" data-name="Path 7691" d="M281.639,77.221a1.356,1.356,0,0,1-1.357-1.357c0-3.286-3-5.959-6.695-5.959s-6.695,2.673-6.695,5.959a1.357,1.357,0,1,1-2.713,0c0-4.782,4.22-8.672,9.408-8.672S283,71.082,283,75.864A1.356,1.356,0,0,1,281.639,77.221Z" transform="translate(-239.34 -47.343)"/>
  <path id="Path_7692" data-name="Path 7692" d="M316.116,77.221a1.356,1.356,0,0,1-1.357-1.357c0-3.286-3-5.959-6.695-5.959s-6.694,2.673-6.694,5.959a1.357,1.357,0,1,1-2.713,0c0-4.782,4.22-8.672,9.407-8.672s9.408,3.89,9.408,8.672A1.356,1.356,0,0,1,316.116,77.221Z" transform="translate(-252.032 -47.343)"/>
  <path id="Path_7693" data-name="Path 7693" d="M300.259,127.374h-60.5a14.908,14.908,0,0,0-14.891,14.89v33.128a1.354,1.354,0,0,0,1.357,1.357h87.566a1.354,1.354,0,0,0,1.357-1.357V142.264A14.908,14.908,0,0,0,300.259,127.374Zm12.177,46.661H227.582V142.264a12.193,12.193,0,0,1,12.177-12.177h60.5a12.193,12.193,0,0,1,12.177,12.177Z" transform="translate(-224.869 -69.497)"/>
  <path id="Path_7694" data-name="Path 7694" d="M301.651,47.7a5.444,5.444,0,0,0-2.095.418,27.418,27.418,0,0,0-45.8,0,5.472,5.472,0,0,0-2.1-.418c-4.9,0-8.726,6.512-8.726,14.831s3.831,14.83,8.726,14.83a5.417,5.417,0,0,0,1.389-.179,27.424,27.424,0,0,0,47.215,0,5.422,5.422,0,0,0,1.39.179c4.895,0,8.731-6.517,8.731-14.83S306.546,47.7,301.651,47.7ZM276.658,87.938a24.736,24.736,0,0,1-21.2-12.009,25.208,25.208,0,0,1-1.3-2.453,24.707,24.707,0,0,1,.423-21.4,22.95,22.95,0,0,1,1.433-2.459,24.7,24.7,0,0,1,41.278,0,22.958,22.958,0,0,1,1.432,2.459,24.7,24.7,0,0,1,.423,21.4c-.19.413-.385.814-.591,1.21l-7.651,4.141a2.6,2.6,0,0,0-2.257-1.3,2.626,2.626,0,1,0,0,5.253,2.525,2.525,0,0,0,1.053-.222,1.511,1.511,0,0,0,.157-.076l.087-.049,5.188-2.806A24.653,24.653,0,0,1,276.658,87.938Z" transform="translate(-231.518 -35.779)"/>
  <path id="Path_7695" data-name="Path 7695" d="M301.129,142.173a12.441,12.441,0,0,0-16.649-.869,12.454,12.454,0,0,0-16.654,18.477l15.693,15.693a1.352,1.352,0,0,0,.96.4,1.331,1.331,0,0,0,.955-.4l15.693-15.693a12.439,12.439,0,0,0,0-17.608Zm-7.282,16.778a1.357,1.357,0,0,1-1.357,1.357h-3.869v3.869a1.357,1.357,0,0,1-1.357,1.357H281.7a1.354,1.354,0,0,1-1.357-1.357v-3.869h-3.875a1.357,1.357,0,0,1-1.357-1.357v-5.567a1.357,1.357,0,0,1,1.357-1.357h3.875v-3.869A1.35,1.35,0,0,1,281.7,146.8h5.567a1.354,1.354,0,0,1,1.357,1.357v3.869h3.869a1.357,1.357,0,0,1,1.357,1.357Z" transform="translate(-239.34 -73.601)"/>
  <path id="Path_7696" data-name="Path 7696" d="M299.085,161.145V164H293.86v5.226h-2.854V164h-5.231v-2.854h5.231V155.92h2.854v5.226Z" transform="translate(-247.29 -80.006)"/>
  <path id="Path_7697" data-name="Path 7697" d="M252.14,186.47a1.356,1.356,0,0,1-1.357-1.357V155.13a1.357,1.357,0,1,1,2.713,0v29.984A1.356,1.356,0,0,1,252.14,186.47Z" transform="translate(-234.409 -79.216)"/>
  <path id="Path_7698" data-name="Path 7698" d="M338.889,186.47a1.356,1.356,0,0,1-1.357-1.357V155.13a1.357,1.357,0,1,1,2.713,0v29.984A1.356,1.356,0,0,1,338.889,186.47Z" transform="translate(-266.343 -79.216)"/>
</svg>
