<svg id="Group_789" data-name="Group 789" xmlns="http://www.w3.org/2000/svg" width="79.378" height="104.241" viewBox="0 0 79.378 104.241">
  <path id="Path_7672" data-name="Path 7672" d="M129.733,323.258h-4.053v2.713h4.053a5.648,5.648,0,0,1,5.638,5.643v73.572a5.644,5.644,0,0,1-5.638,5.638H67.057a5.644,5.644,0,0,1-5.638-5.638V331.615a5.648,5.648,0,0,1,5.638-5.643h4.059v-2.713H67.057a8.363,8.363,0,0,0-8.351,8.357v73.572a8.362,8.362,0,0,0,8.351,8.351h62.675a8.362,8.362,0,0,0,8.351-8.351V331.615A8.363,8.363,0,0,0,129.733,323.258Z" transform="translate(-58.706 -309.296)"/>
  <path id="Path_7673" data-name="Path 7673" d="M133.645,336.629h-3.657v2.713h2.3V407.3H73.124V339.342h2.3v-2.713H71.768a1.357,1.357,0,0,0-1.357,1.357V408.66a1.357,1.357,0,0,0,1.357,1.357h61.878A1.357,1.357,0,0,0,135,408.66V337.986A1.357,1.357,0,0,0,133.645,336.629Z" transform="translate(-63.015 -314.218)"/>
  <path id="Path_7674" data-name="Path 7674" d="M127.211,309.247h-11.07c-.809-4.574-5.215-8.085-10.517-8.085s-9.707,3.511-10.511,8.085H84.039a5.478,5.478,0,0,0-5.693,5.221v11.819a5.474,5.474,0,0,0,5.693,5.2h43.173a5.479,5.479,0,0,0,5.7-5.2V314.467A5.483,5.483,0,0,0,127.211,309.247Zm2.675,17.039a2.473,2.473,0,0,1-2.675,2.176H84.039a2.472,2.472,0,0,1-2.67-2.176V314.467a2.474,2.474,0,0,1,2.67-2.2H96.492A1.509,1.509,0,0,0,98,310.761c0-3.624,3.419-6.577,7.624-6.577s7.624,2.952,7.624,6.577a1.51,1.51,0,0,0,1.514,1.509h12.449a2.475,2.475,0,0,1,2.675,2.2Z" transform="translate(-65.936 -301.162)"/>
  <path id="Path_7675" data-name="Path 7675" d="M118.568,309.191a5.066,5.066,0,1,0,5.068,5.068A5.069,5.069,0,0,0,118.568,309.191Zm0,7.418a2.352,2.352,0,1,1,2.356-2.35A2.351,2.351,0,0,1,118.568,316.609Z" transform="translate(-78.879 -304.118)"/>
  <path id="Path_7676" data-name="Path 7676" d="M128.869,372.881v11.086a1.357,1.357,0,0,1-1.357,1.357h-9.361v9.355a1.357,1.357,0,0,1-1.357,1.357H105.715a1.357,1.357,0,0,1-1.357-1.357v-9.355H95a1.357,1.357,0,0,1-1.357-1.357V372.881A1.357,1.357,0,0,1,95,371.525h9.361v-9.356a1.357,1.357,0,0,1,1.357-1.356H116.8a1.356,1.356,0,0,1,1.357,1.356v9.356h9.361A1.357,1.357,0,0,1,128.869,372.881Z" transform="translate(-71.566 -323.121)"/>
  <path id="Path_7677" data-name="Path 7677" d="M129.4,428.934H87.839a1.357,1.357,0,0,1,0-2.713H129.4a1.357,1.357,0,0,1,0,2.713Z" transform="translate(-68.931 -347.199)"/>
  <path id="Path_7678" data-name="Path 7678" d="M129.4,439.751H87.839a1.357,1.357,0,1,1,0-2.713H129.4a1.357,1.357,0,0,1,0,2.713Z" transform="translate(-68.931 -351.181)"/>
  <path id="Path_7679" data-name="Path 7679" d="M91.312,337.257a2.282,2.282,0,0,1-.526,1.465H87.215a2.309,2.309,0,0,1-.521-1.465A2.318,2.318,0,0,1,89,334.946a2.308,2.308,0,0,1,1.942,1.063A2.28,2.28,0,0,1,91.312,337.257Z" transform="translate(-69.009 -313.599)"/>
  <path id="Path_7680" data-name="Path 7680" d="M91.089,340.923a2.316,2.316,0,0,1-3.571,0Z" transform="translate(-69.312 -315.799)"/>
  <path id="Path_7681" data-name="Path 7681" d="M153.651,337.257a2.309,2.309,0,0,1-4.091,1.465,2.3,2.3,0,0,1-.157-2.713,2.3,2.3,0,0,1,3.88,0A2.28,2.28,0,0,1,153.651,337.257Z" transform="translate(-91.958 -313.599)"/>
</svg>
