<svg xmlns="http://www.w3.org/2000/svg" width="108.992" height="102.978" viewBox="0 0 108.992 102.978">
  <g id="Group_786" data-name="Group 786" transform="translate(0 0)">
    <g id="Group_765" data-name="Group 765" transform="translate(0 70.111)">
      <path id="Path_7667" data-name="Path 7667" d="M124.934,151.763a7.3,7.3,0,0,0-6.137-1.454c-5.258.727-10.549,2.686-15.628,4.27a4.915,4.915,0,0,0-.19-.9c-1.395-2.67-3.072-4.27-6.474-3.255-4.884,1.454-10.69,2.946-15.7,4.542-7.016-.6-9.013-2.448-12.773-3.1-3.039-.532-6.859-1.286-10.864.516a18.472,18.472,0,0,0-2.654,1.666c-.342.234-.684.488-1,.744-7.011,5.595-10.381,6.761-15.677,10.516a5.266,5.266,0,0,0-2.339,2.3,7.142,7.142,0,0,0,.217,4.1,49.385,49.385,0,0,1,1.118,5.785,28.475,28.475,0,0,0,.6,2.936.7.7,0,0,0,.119.342,4.072,4.072,0,0,0,3.028,2.181A4.118,4.118,0,0,0,43,182.428c8.492-3.869,11.808-5.177,14.8-5.959a4.629,4.629,0,0,1,1.553-.135c.265-.006,2.55-.293,7.125-.863.657-.082.515-.059.749-.1a56.031,56.031,0,0,1,7-.511c1.254.006,2.414.076,2.871.06a39.641,39.641,0,0,1,7.467.646,14.737,14.737,0,0,0,5.4.071c3.468-.592,5.405-1.7,8.33-3.956a35.006,35.006,0,0,1,8.948-5.1c.9-.353,2.811-1.2,4.488-2.018,2.768-1.357,6.995-3.25,10.126-4.6,2.464-1.058,4.493-2.974,4.4-5.67A3.343,3.343,0,0,0,124.934,151.763Zm-1.4,2.881c-.087,1.395-1.259,2.241-2.74,2.854-2.99,1.232-7.521,3.3-10.261,4.64-1.585.771-3.484,1.633-4.282,1.942a39.1,39.1,0,0,0-9.665,5.53c-2.686,2.073-3.966,2.746-7.006,3.3a11.1,11.1,0,0,1-4.634-.1,43.648,43.648,0,0,0-8.166-.613c-.445.011-1.65-.027-2.931-.033a71.667,71.667,0,0,0-7.239.4c-.516.06-.385.044-.792.082-3.272.32-8.248.521-9.707,1.145-.337.141-.641.3-.641.3-1.318.57-12.6,5.427-13.7,5.725a1.444,1.444,0,0,1-.581.038,1.7,1.7,0,0,1-1.161-.885,26.171,26.171,0,0,1-.635-2.583c-.358-1.932-.716-3.787-1.183-5.693-.011-.043-.032-.081-.054-.162a2.774,2.774,0,0,1-.162-2c.217-.532.634-.754,1.183-1.134,3.978-2.751,11-6.87,14.966-9.637,3.484-2.442,3.956-2.925,5.475-3.386a16.232,16.232,0,0,1,6.7-.4c.717.109,1.5.31,2.1.456,5.09,1.269,6.772,2.306,11.857,3.272a1.353,1.353,0,0,0,.77-.043c5.3-1.618,11.038-3.044,16.263-4.634,1.661-.511,2.393.277,3.066,1.514a1.8,1.8,0,0,1,.1.96,2.134,2.134,0,0,1-.277.955,2.6,2.6,0,0,1-1.471,1.2c-.065.021-.119.049-.185.076A66.581,66.581,0,0,1,87,162.014a83.1,83.1,0,0,1-11.667,2c-.548.049-1.313.6-1.145,1.292a1.544,1.544,0,0,0,1.319,1.172,1.132,1.132,0,0,0,.266,0A75.632,75.632,0,0,0,99.6,160.18a5.743,5.743,0,0,0,2.99-2.48.152.152,0,0,1,.038-.059c5.236-1.715,11.07-3.81,16.366-4.629a4.757,4.757,0,0,1,4,.679A.883.883,0,0,1,123.534,154.645Z" transform="translate(-35.272 -150.121)"/>
    </g>
    <path id="Path_7668" data-name="Path 7668" d="M142.481,39.841a33.234,33.234,0,0,0-36.558,18.168,32.411,32.411,0,0,0-1.4,3.418,33.753,33.753,0,0,0-1.189,4.33q-.3,1.474-.466,2.958c-.119,1.031-.185,2.062-.2,3.093a32.567,32.567,0,0,0,1.346,9.974,31.568,31.568,0,0,0,1.2,3.37,33.2,33.2,0,0,0,2.1,4.156c.277.472.564.933.868,1.389.206.309.412.613.629.911a33.264,33.264,0,0,0,27.061,13.968,33.2,33.2,0,0,0,6.6-65.735Zm23.263,38.6a30.472,30.472,0,0,1-54.335,12.1c-.548-.743-1.069-1.508-1.547-2.295a30.474,30.474,0,0,1-1.937-28.077,29.241,29.241,0,0,1,1.7-3.337,30.494,30.494,0,0,1,56.121,21.608Z" transform="translate(-60.079 -39.163)"/>
    <path id="Path_7669" data-name="Path 7669" d="M151.993,57.544l.516-3.674a1.356,1.356,0,0,0-2.686-.374l-.472,3.375c-.222-.038-.451-.07-.678-.1s-.456-.059-.679-.082l.472-3.381a1.356,1.356,0,1,0-2.686-.38l-.516,3.668a15.294,15.294,0,0,0-9.968,3.9,10.214,10.214,0,0,0-1.916,2.453,9.128,9.128,0,0,0-1.1,3.223c-.526,3.739,1.324,7.39,4.613,9.99a16.022,16.022,0,0,0,3.212,1.975,18.178,18.178,0,0,0,2.024.809l-.716,5.133v.011l-.939,6.7a8.642,8.642,0,0,1-2-1.4,5.723,5.723,0,0,1-1.986-4.156,1.355,1.355,0,0,0-1.167-1.357l-4.037-.564a1.338,1.338,0,0,0-1.058.3,1.358,1.358,0,0,0-.488.982c-.005.119-.005.245-.005.363A9.8,9.8,0,0,0,131,89.7a12.476,12.476,0,0,0,1.812,2.485,16.405,16.405,0,0,0,6.865,4.287l-.516,3.679a1.354,1.354,0,0,0,1.156,1.53,1.093,1.093,0,0,0,.19.011,1.359,1.359,0,0,0,1.341-1.166l.472-3.381c.222.039.451.076.678.109s.451.06.679.082l-.472,3.381a1.353,1.353,0,0,0,1.156,1.53,1.131,1.131,0,0,0,.19.016,1.351,1.351,0,0,0,1.341-1.167l.516-3.674c6.7-.271,12.22-4.146,12.979-9.572s-3.478-10.674-9.848-12.774L151.2,63.226c2.4,1.237,4,3.343,3.983,5.557a1.355,1.355,0,0,0,1.167,1.357l4.037.564a1.338,1.338,0,0,0,1.058-.3,1.362,1.362,0,0,0,.488-.983C162.136,64.306,157.963,59.525,151.993,57.544ZM142.932,73.27a8.486,8.486,0,0,1-2.274-1.671,5.045,5.045,0,0,1,1.167-8.341,8.514,8.514,0,0,1,2.648-.982ZM144.446,91.9c-.228-.016-.456-.038-.684-.071s-.451-.071-.673-.119l1.693-12.1c.222.044.451.076.679.109s.45.071.673.119Zm1.769-17.6c-.227-.032-.45-.07-.673-.119l1.688-12.062c.228.016.456.038.684.07s.451.071.673.119l-1.693,12.1C146.67,74.366,146.442,74.333,146.214,74.3Zm4.8,8.118a5.4,5.4,0,0,1,1.66,4.488c-.342,2.437-2.567,4.27-5.475,4.835l1.541-11A8.509,8.509,0,0,1,151.017,82.419Z" transform="translate(-70.048 -43.799)"/>
    <g id="Group_766" data-name="Group 766" transform="translate(1.746 18.846)">
      <path id="Path_7670" data-name="Path 7670" d="M84.4,101.677c-.3-.456-.591-.917-.868-1.389-2.464,1.075-4.894,2.241-7.3,3.4-9.642,4.634-18.765,9.019-29.281,7.45L41.137,84.654c10.929,1.264,20.533-3.348,29.84-7.825,3.288-1.579,6.511-3.131,9.757-4.422a32.413,32.413,0,0,1,1.4-3.418A125.644,125.644,0,0,0,69.8,74.382c-9.913,4.77-19.274,9.274-30.165,7.31a1.337,1.337,0,0,0-1.216.4,1.369,1.369,0,0,0-.353,1.232l6.431,29.3a1.365,1.365,0,0,0,1.085,1.042,32.066,32.066,0,0,0,5.682.5c9.42,0,17.9-4.075,26.144-8.036,2.561-1.232,5.09-2.447,7.619-3.539C84.808,102.29,84.6,101.986,84.4,101.677Z" transform="translate(-38.036 -68.988)"/>
      <path id="Path_7671" data-name="Path 7671" d="M94.915,98.47a11.391,11.391,0,0,1-5.2,5.481,6.283,6.283,0,0,1-5.562.212,5.64,5.64,0,0,1-2.105-1.759,7.1,7.1,0,0,1-1.194-2.713c-.955-4.362,1.742-9.615,6.018-11.71a7.074,7.074,0,0,1,3.109-.765,5.578,5.578,0,0,1,2.453.554,5.51,5.51,0,0,1,1.134.727c.016-1.031.082-2.062.2-3.093a1.294,1.294,0,0,0-.152-.082,8.927,8.927,0,0,0-7.939.222,14.167,14.167,0,0,0-7.732,12.313,11.314,11.314,0,0,0,.26,2.42,9.016,9.016,0,0,0,4.764,6.327,8.294,8.294,0,0,0,3.636.83,9.808,9.808,0,0,0,4.3-1.047,13.821,13.821,0,0,0,5.209-4.548A31.566,31.566,0,0,1,94.915,98.47Z" transform="translate(-52.728 -74.697)"/>
    </g>
  </g>
</svg>
