<svg id="Group_791" data-name="Group 791" xmlns="http://www.w3.org/2000/svg" width="105.777" height="109.366" viewBox="0 0 105.777 109.366">
  <path id="Path_7682" data-name="Path 7682" d="M136.894,564.625a1.364,1.364,0,0,0-.651-.808L101.46,544.775a3.848,3.848,0,0,0-3.7,0L62.981,563.816a1.355,1.355,0,0,0-.537,1.839l2.4,4.385a1.351,1.351,0,0,0,1.84.537l2.6-1.427v50.1a1.357,1.357,0,0,0,1.357,1.357h57.932a1.354,1.354,0,0,0,1.357-1.357v-50.1l2.61,1.427a1.329,1.329,0,0,0,.646.169,1.36,1.36,0,0,0,1.194-.706l2.4-4.385A1.362,1.362,0,0,0,136.894,564.625Zm-9.675,53.266H72V567.658l.8-.434,3.966-2.17.993-.543,21.847-11.96,21.846,11.96.993.543,3.967,2.17.8.434Zm5.432-50.346-2.719-1.492-.054-.027-1.779-.971-.993-.543L100.26,549.816a1.311,1.311,0,0,0-.651-.168,1.34,1.34,0,0,0-.651.168L72.114,564.511l-.993.543-1.78.977-.054.027-2.713,1.487-1.1-2,33.584-18.385a1.128,1.128,0,0,1,1.1,0l33.589,18.385Z" transform="translate(-46.821 -544.301)"/>
  <path id="Path_7683" data-name="Path 7683" d="M133.9,682.623v-5.486a1.357,1.357,0,0,0-1.357-1.357H96.7a1.357,1.357,0,0,0-1.357,1.357v5.589a6.529,6.529,0,0,1,2.713,1.97v-6.2h33.123v5.486a1.362,1.362,0,0,0,.315.868,6.607,6.607,0,0,1,3.115-2.225ZM87.925,665.057v3.674H50.8c-3.663,0-6.529,2.171-6.529,4.933v10.315a1.323,1.323,0,0,0,.169.651,6.585,6.585,0,0,1,2.946-2.008h-.4v-8.959c0-1.048,1.563-2.22,3.815-2.22H89.281a1.357,1.357,0,0,0,1.357-1.357v-5.03Zm47.259,3.674H98.061v-3.674H95.348v5.03a1.357,1.357,0,0,0,1.357,1.357h38.479c2.252,0,3.82,1.172,3.82,2.22v8.959h-.228a6.568,6.568,0,0,1,2.833,1.883,1.311,1.311,0,0,0,.109-.526V673.664C141.717,670.9,138.846,668.731,135.183,668.731Zm-45.9,7.049H53.445a1.357,1.357,0,0,0-1.357,1.357v5.486h-.543a6.6,6.6,0,0,1,3.028,2.111,1.39,1.39,0,0,0,.228-.755v-5.486H87.925v6.18a6.574,6.574,0,0,1,2.713-1.953v-5.584A1.357,1.357,0,0,0,89.281,675.78Z" transform="translate(-40.193 -588.754)"/>
  <path id="Path_7684" data-name="Path 7684" d="M52.424,689.723a9.253,9.253,0,0,0-2.713-1.313,9.311,9.311,0,0,0-7.814,1.21,9.278,9.278,0,1,0,10.528.1ZM47.09,703.864a6.556,6.556,0,1,1,6.56-6.561A6.566,6.566,0,0,1,47.09,703.864Z" transform="translate(-37.816 -597.211)"/>
  <path id="Path_7685" data-name="Path 7685" d="M190.159,689.511a9.247,9.247,0,0,0-7.819-1.047,9.1,9.1,0,0,0-2.713,1.389,9.273,9.273,0,1,0,10.533-.342Zm-5.02,14.353a6.566,6.566,0,0,1-6.561-6.561,6.5,6.5,0,0,1,1.362-4,6.544,6.544,0,0,1,10.109-.342,6.554,6.554,0,0,1-4.911,10.9Z" transform="translate(-88.635 -597.211)"/>
  <path id="Path_7686" data-name="Path 7686" d="M121.035,689.544a9.327,9.327,0,0,0-5.079-1.514,9.264,9.264,0,0,0-5.058,1.508,9.273,9.273,0,1,0,10.137.006Zm-5.079,14.32a6.561,6.561,0,0,1-2.344-12.687,6.463,6.463,0,0,1,2.344-.434,6.56,6.56,0,1,1,0,13.121Z" transform="translate(-63.167 -597.211)"/>
  <g id="Group_769" data-name="Group 769" transform="translate(27.46 38.152)">
    <path id="Path_7687" data-name="Path 7687" d="M110.814,622.189l.065-2.045,2.018-1.709a1.359,1.359,0,0,0,.4-1.514l-1.454-3.864a1.371,1.371,0,0,0-1.3-.879l-2.648.054-1.4-1.493.217-2.642a1.357,1.357,0,0,0-.792-1.352l-3.76-1.7a1.354,1.354,0,0,0-1.541.3l-1.834,1.9-2.04-.065-1.715-2.024a1.349,1.349,0,0,0-1.514-.391l-3.864,1.455a1.355,1.355,0,0,0-.879,1.292l.054,2.653-1.5,1.4-2.637-.222a1.366,1.366,0,0,0-1.351.792l-1.7,3.766a1.355,1.355,0,0,0,.293,1.535l1.91,1.839-.065,2.046-2.024,1.709a1.345,1.345,0,0,0-.391,1.514l1.454,3.858a1.36,1.36,0,0,0,1.3.879l2.648-.049,1.4,1.492-.222,2.643a1.381,1.381,0,0,0,.792,1.351l3.766,1.7a1.357,1.357,0,0,0,1.535-.3l1.834-1.905,2.051.06L99.63,636.3a1.35,1.35,0,0,0,1.367.445c.044-.016.1-.032.147-.049L105,635.245a1.35,1.35,0,0,0,.879-1.3l-.049-2.648,1.492-1.4,2.643.217a1.346,1.346,0,0,0,1.346-.792l1.7-3.76a1.36,1.36,0,0,0-.3-1.535Zm-11.635,5.921a7.365,7.365,0,0,1-1.9.228,7.6,7.6,0,1,1,.1-15.2,7.6,7.6,0,0,1,7.553,7.657A7.612,7.612,0,0,1,99.179,628.109Z" transform="translate(-81.275 -604.68)"/>
    <path id="Path_7688" data-name="Path 7688" d="M108.72,627.274a4.892,4.892,0,1,1-8.33-3.527,4.939,4.939,0,0,1,3.473-1.405A4.9,4.9,0,0,1,108.72,627.274Z" transform="translate(-87.776 -611.182)"/>
  </g>
  <g id="Group_770" data-name="Group 770" transform="translate(53.955 22.278)">
    <path id="Path_7689" data-name="Path 7689" d="M147.754,590.28a1.366,1.366,0,0,0-.906-1.276l-1.677-.586-.45-1.086.754-1.606a1.36,1.36,0,0,0-.271-1.541l-2.143-2.127a1.366,1.366,0,0,0-1.541-.26l-1.6.77-1.085-.445-.6-1.671a1.347,1.347,0,0,0-1.275-.9h-.005l-3.017.011a1.351,1.351,0,0,0-1.275.906l-.591,1.671-1.08.456-1.606-.76a1.358,1.358,0,0,0-1.541.271l-2.128,2.143a1.358,1.358,0,0,0-.26,1.541l.771,1.6-.445,1.086-1.671.6a1.353,1.353,0,0,0-.9,1.281l.011,3.017a1.366,1.366,0,0,0,.906,1.275l1.677.591.451,1.08-.754,1.606a1.358,1.358,0,0,0,.271,1.541l2.143,2.127a1.357,1.357,0,0,0,1.541.261l1.6-.771,1.085.445.6,1.671a1.345,1.345,0,0,0,1.275.9h.005l3.017-.011a1.359,1.359,0,0,0,1.275-.906l.591-1.677,1.08-.451,1.606.755a1.358,1.358,0,0,0,1.541-.272l2.128-2.143a1.356,1.356,0,0,0,.26-1.541l-.77-1.6.445-1.086,1.671-.6a1.364,1.364,0,0,0,.9-1.286Zm-17.923-.538a6.026,6.026,0,1,1,.179,4.613A6,6,0,0,1,129.831,589.742Z" transform="translate(-123.205 -579.557)"/>
    <path id="Path_7690" data-name="Path 7690" d="M144.022,597.057a3.278,3.278,0,0,1-.206,1.145,3.319,3.319,0,0,1-4.26,1.959,3.315,3.315,0,0,1-.233-6.122,3.339,3.339,0,0,1,1.384-.3,3.382,3.382,0,0,1,1.151.206A3.322,3.322,0,0,1,144.022,597.057Z" transform="translate(-128.427 -584.777)"/>
  </g>
</svg>
