<svg xmlns="http://www.w3.org/2000/svg" width="248.315" height="247.012" viewBox="0 0 248.315 247.012">
  <g id="Group_703" data-name="Group 703" transform="translate(-75.775 -76.488)">
    <g id="Layer_8" data-name="Layer 8">
      <path id="Path_7372" data-name="Path 7372" d="M230.5,215.7A81.188,81.188,0,0,1,216.1,230l80.4,79.9c3.6,3.6,8.8,4.9,12.6,3.2a11.351,11.351,0,0,0,3.9-3,3.039,3.039,0,0,0,.5-.7h0c2.5-3.9,1.5-9.9-2.6-13.9Z" fill="#fff"/>
    </g>
    <g id="Layer_7" data-name="Layer 7">
      <path id="Path_7373" data-name="Path 7373" d="M221.5,211.6a75.89,75.89,0,0,0-9-106.9,76.818,76.818,0,0,0-97-1.6A75.641,75.641,0,0,0,95,197.4a76.645,76.645,0,0,0,89,38.4h0A76.93,76.93,0,0,0,221.5,211.6Z" fill="#fff"/>
    </g>
    <g id="Layer_6" data-name="Layer 6">
      <path id="Path_7374" data-name="Path 7374" d="M252.8,266.7l14.4-14.4h0l51.4,51.4a.785.785,0,0,1,0,1.1l-13.3,13.3a.785.785,0,0,1-1.1,0l-51.4-51.4Z" fill="#004288"/>
    </g>
    <g id="Layer_5" data-name="Layer 5">
      <circle id="Ellipse_48" data-name="Ellipse 48" cx="60.207" cy="60.207" r="60.207" transform="translate(102.093 102.493)" fill="#004288"/>
    </g>
    <g id="Layer_4" data-name="Layer 4">
      <path id="Path_114" data-name="Path 114" d="M317.3,288.7l-81.6-81.1a39.724,39.724,0,0,0,2-3.5A85.409,85.409,0,0,0,218.2,96.9a86.9,86.9,0,0,0-109.7-1.8A85.537,85.537,0,0,0,85.3,201.6a87.2,87.2,0,0,0,122.2,34l81.6,81.1a23.055,23.055,0,0,0,15.8,6.8,18.2,18.2,0,0,0,7.6-1.6,20.259,20.259,0,0,0,7.5-5.8,7.1,7.1,0,0,0,1-1.4C326.3,306.9,324.6,296,317.3,288.7Zm-133.8-53a76.645,76.645,0,0,1-89-38.4A75.79,75.79,0,0,1,115,103a76.958,76.958,0,0,1,97.1,1.6,75.9,75.9,0,0,1,9.1,106.9,76.994,76.994,0,0,1-37.7,24.2Zm129.6,73.7a1.794,1.794,0,0,1-.5.7,10.487,10.487,0,0,1-3.9,3c-3.9,1.7-9,.4-12.6-3.2L215.7,230a84.73,84.73,0,0,0,14.4-14.3l80.4,79.9c4,3.9,5.1,9.9,2.6,13.8Z"/>
    </g>
    <g id="Layer_3" data-name="Layer 3">
      <path id="Path_115" data-name="Path 115" d="M162.3,229.4a67.376,67.376,0,1,1,11-.9,67.367,67.367,0,0,1-11,.9Zm.3-123.8A57.068,57.068,0,1,0,196,116.3h0a57.741,57.741,0,0,0-33.4-10.7Z"/>
    </g>
    <path id="Path_116" data-name="Path 116" d="M170.8,124.8a2.768,2.768,0,0,1-.9-.1h0a4.4,4.4,0,0,1-3.1-2,4.666,4.666,0,0,1-.7-3.6,4.829,4.829,0,0,1,5.7-3.8h0a4.817,4.817,0,0,1-.8,9.6h0l-.2-.1Z" fill="#fff"/>
    <path id="Path_116-2" data-name="Path 116" d="M201.1,187.9a4.777,4.777,0,0,1-4.2-7.1,38.589,38.589,0,0,0-8.2-46.9,4.841,4.841,0,0,1-1.6-3.6,4.542,4.542,0,0,1,1.2-3.2,4.959,4.959,0,0,1,6.8-.3,48.184,48.184,0,0,1,10.3,58.4,4.838,4.838,0,0,1-4.3,2.7Z" fill="#fff"/>
  </g>
</svg>
